# xmcd CD database file
#
# Track frame offsets:
#	150
#	13271
#	24010
#	37763
#	53435
#	68196
#	83344
#	97621
#	111845
#	126564
#	140604
#	153340
#	168991
#	182377
#	192889
#	207034
#	221433
#	235852
#
# Disc length: 3317 seconds
#
# Revision: 0
# Processed by: cddbd v1.5.2PL0 Copyright (c) Steve Scherf et al.
# Submitted via: CDex 1.79
#
DISCID=d70cf312
DTITLE=Frank Sinatra - Imagination
DYEAR=1940
DGENRE=Jazz
TTITLE0=All or Nothing at All
TTITLE1=Ciribiribin
TTITLE2=I'll be Seein You
TTITLE3=Shake Down The Stars
TTITLE4=Polka Dots and Mooonbeans
TTITLE5=Say it
TTITLE6=Fools Rush in
TTITLE7=Imagination
TTITLE8=East of the Sun
TTITLE9=I'll Never Smile Again
TTITLE10=Whispering
TTITLE11=The One I Love Belongs to Somebody Else
TTITLE12=Our Love Affair
TTITLE13=Marie
TTITLE14=Stardust
TTITLE15=Oh Look at me Now
TTITLE16=It's Always You
TTITLE17=Dolores
EXTD=YEAR: 1940
EXTT0=
EXTT1=
EXTT2=
EXTT3=
EXTT4=
EXTT5=
EXTT6=
EXTT7=
EXTT8=
EXTT9=
EXTT10=
EXTT11=
EXTT12=
EXTT13=
EXTT14=
EXTT15=
EXTT16=
EXTT17=
PLAYORDER=
